<?xml version="1.0" encoding="UTF-8"?>
<svg width="24px" height="14px" viewBox="0 0 24 14" version="1.1" xmlns="http://www.w3.org/2000/svg" xmlns:xlink="http://www.w3.org/1999/xlink">
    <!-- Generator: Sketch 46.2 (44496) - http://www.bohemiancoding.com/sketch -->
    <title>Fill 1</title>
    <desc>Created with Sketch.</desc>
    <defs></defs>
    <g id="Page-1" stroke="none" stroke-width="1" fill="none" fill-rule="evenodd">
        <g id="Full-HD" transform="translate(-948.000000, -804.000000)" fill="#FFFFFF">
            <path d="M962.022134,810.995233 C960.339732,809.22089 958.674002,807.465114 957.009454,805.708307 C955.83681,804.470588 954.660736,803.235848 953.496368,801.990794 C952.933991,801.389184 952.861743,800.701154 953.217545,799.976792 C953.551116,799.297474 954.256926,798.891166 955.059698,799.025609 C955.457595,799.092429 955.89877,799.299422 956.180905,799.57633 C959.599985,802.933267 962.998373,806.310261 966.38931,809.694017 C967.221525,810.524627 967.199886,811.54137 966.344495,812.390317 C962.971176,815.737626 959.590644,819.077829 956.203845,822.412302 C955.429807,823.174372 954.311319,823.190074 953.560458,822.489896 C952.837975,821.815849 952.799782,820.749364 953.532788,819.966204 C955.584709,817.773863 957.658861,815.60135 959.724144,813.421158 C960.482927,812.620004 961.24183,811.818965 962.022134,810.995233" id="Fill-1" transform="translate(960.000000, 811.000000) rotate(90.000000) translate(-960.000000, -811.000000) "></path>
        </g>
    </g>
</svg>